# xmcd
#
# Track frame offsets: 
#        150
#        674
#        16736
#        34068
#        51818
#        69367
#        88451
#        107596
#        124925
#        143340
#        161428
#        179629
#        197060
#        213590
#        228553
#        242627
#        258364
#        271272
#        293891
#        312131
#
# Disc length: 4391 seconds
#
# Revision: 0
# Processed by: cddbd v1.5.2PL0 Copyright (c) Steve Scherf et al.
# Submitted via: ExactAudioCopy v0.99pb4
#
DISCID=17112514
DTITLE=Various Artist - prevue promo 1085A-2
DYEAR=2002
DGENRE=pop
TTITLE0=blank - data
TTITLE1=Enya - Wild Child
TTITLE2=Westlife - My Love
TTITLE3=Cooley's Hot Box - Make Me Happy
TTITLE4=Train - She's On Fire(New Radio Edit)
TTITLE5=Bebe Winans - Do You Know HIM
TTITLE6=Nikka Costa - So Have I For You(Re-Service)
TTITLE7=Ashanti - Foolish(Watch Ending)
TTITLE8=Michael Jackson - Butterflies(Outland Remix)
TTITLE9=Lil Bow Wow - Take Ya Home
TTITLE10=Jonatha Brooke - Out Of Your Mind (Look At You)
TTITLE11=John Mayer - No Such Thing
TTITLE12=Abandoned Pools - Remedy, The(Radio Edit #2)
TTITLE13=London Quireboys - This Is Rock 'N' Roll
TTITLE14=Quarashi - Stick 'Em Up
TTITLE15=Breaking Point - One Of A Kind ( Featured On WWF)
TTITLE16=Slipknot - My Plague
TTITLE17=Crossbreed - Breathe
TTITLE18=Sevendust - Live Again
TTITLE19=Flaw - Whole
EXTD=
EXTT0=
EXTT1=
EXTT2=
EXTT3=
EXTT4=
EXTT5=
EXTT6=
EXTT7=
EXTT8=
EXTT9=
EXTT10=
EXTT11=
EXTT12=
EXTT13=
EXTT14=
EXTT15=
EXTT16=
EXTT17=
EXTT18=
EXTT19=
PLAYORDER=
